# xmcd
#
# Track frame offsets:
#	150
#	10050
#	25260
#	39835
#	54807
#	73475
#	90662
#	98062
#	115905
#	128087
#	141825
#	157232
#	172215
#	188112
#	201242
#	214217
#	225477
#	236505
#
# Disc length: 3333
#
# Revision: 1
# Processed by: cddbd v1.5.1PL0 Copyright (c) Steve Scherf et al.
# Submitted via: CDex 1.51
# Normalized: r0:DSETVAR1,TDELIM( - )
#
DISCID=f90d0312
DTITLE=Various Artist - A new beginning
DYEAR=1945
DGENRE=Jazz
TTITLE0=Judy Garland - I got a lot of living to do
TTITLE1=Glenn Miller - Moonlight Serenade
TTITLE2=Glenn Miller - A String of Pearls
TTITLE3=Glenn Miller - American Petrol
TTITLE4=Glenn Miller - Great Day
TTITLE5=Glenn Miller - Begin the Beguine
TTITLE6=Judy Garland - This could be the start of something big
TTITLE7=Judy Garland - poor Butterfly
TTITLE8=Wiilie Lewis and his Negro Band - What will I do
TTITLE9=Wiilie Lewis and his Negro Band - Baby ain't you satisfied
TTITLE10=Glenn Miller - Song of the Volga Boatman
TTITLE11=Glenn Miller - Perfidia
TTITLE12=Glenn Miller - Chattanooga Choo Choo
TTITLE13=Glenn Miller - Adios
TTITLE14=The Andrew Sisters - Begin the Beguine
TTITLE15=The Andrew Sisters - Straighten up and fly right
TTITLE16=The Andrew Sisters - Put this ring on my finger
TTITLE17=The Andrew Sisters - 18 is you is
EXTD=YEAR: 1945
EXTT0=
EXTT1=
EXTT2=
EXTT3=
EXTT4=
EXTT5=
EXTT6=
EXTT7=
EXTT8=
EXTT9=
EXTT10=
EXTT11=
EXTT12=
EXTT13=
EXTT14=
EXTT15=
EXTT16=
EXTT17=
PLAYORDER=
